<svg width="13" height="13" viewBox="0 0 13 13" fill="none" xmlns="http://www.w3.org/2000/svg">
<path d="M7.94002 5.99999L12.8 1.13999C12.9092 1.01246 12.9663 0.848406 12.9598 0.680622C12.9533 0.512838 12.8838 0.353679 12.7651 0.234949C12.6463 0.116219 12.4872 0.0466642 12.3194 0.0401834C12.1516 0.0337026 11.9876 0.0907736 11.86 0.199991L7.00002 5.05999L2.14002 0.193324C2.01249 0.0841068 1.84844 0.0270364 1.68065 0.0335172C1.51287 0.039998 1.35371 0.109553 1.23498 0.228282C1.11625 0.347012 1.0467 0.506171 1.04022 0.673955C1.03373 0.841739 1.09081 1.00579 1.20002 1.13332L6.06002 5.99999L1.19336 10.86C1.12357 10.9198 1.06689 10.9933 1.02687 11.076C0.986857 11.1587 0.96437 11.2488 0.960824 11.3406C0.957278 11.4324 0.972748 11.524 1.00626 11.6095C1.03978 11.6951 1.09062 11.7728 1.15559 11.8378C1.22056 11.9027 1.29826 11.9536 1.38381 11.9871C1.46936 12.0206 1.56091 12.0361 1.65273 12.0325C1.74454 12.029 1.83463 12.0065 1.91734 11.9665C2.00005 11.9265 2.07359 11.8698 2.13336 11.8L7.00002 6.93999L11.86 11.8C11.9876 11.9092 12.1516 11.9663 12.3194 11.9598C12.4872 11.9533 12.6463 11.8838 12.7651 11.765C12.8838 11.6463 12.9533 11.4871 12.9598 11.3194C12.9663 11.1516 12.9092 10.9875 12.8 10.86L7.94002 5.99999Z" fill="#1C1C1C"/>
</svg>
